<?xml version="1.0" standalone="no"?>
<!DOCTYPE svg PUBLIC "-//W3C//DTD SVG 20010904//EN"
 "http://www.w3.org/TR/2001/REC-SVG-20010904/DTD/svg10.dtd">
<svg version="1.0" xmlns="http://www.w3.org/2000/svg"
 width="257.000000pt" height="257.000000pt" viewBox="0 0 257.000000 257.000000"
 preserveAspectRatio="xMidYMid meet">
<metadata>
Created by potrace 1.14, written by Peter Selinger 2001-2017
</metadata>
<g transform="translate(0.000000,257.000000) scale(0.100000,-0.100000)"
fill="#000000" stroke="none">
<path d="M1200 1926 l0 -255 -64 -118 c-131 -240 -206 -445 -206 -562 1 -185
113 -370 251 -416 71 -24 163 -16 222 18 122 72 206 234 207 398 0 116 -77
327 -205 562 l-65 118 0 255 0 254 -70 0 -70 0 0 -254z"/>
<path d="M1090 1669 c-204 -160 -401 -355 -462 -459 -61 -103 -64 -229 -8
-347 56 -122 187 -213 317 -221 l63 -4 -35 57 c-59 98 -80 175 -80 295 0 90 4
118 29 190 38 115 113 280 181 402 70 126 69 146 -5 87z"/>
<path d="M1390 1697 c0 -7 31 -71 70 -142 80 -150 160 -339 185 -440 33 -133
6 -293 -71 -420 l-34 -58 64 5 c185 15 340 172 354 358 10 146 -37 232 -226
420 -107 105 -321 290 -337 290 -3 0 -5 -6 -5 -13z"/>
</g>
</svg>
